<?xml version="1.0" encoding="utf-8"?><svg viewBox="0 0 16 16" xmlns="http://www.w3.org/2000/svg"><g fill="none" fill-rule="evenodd"><path d="M11 14l-.112-1.825c.706-.506 1.222-1.237 1.515-2.175H8.085L8 9.934V7h7.62c.04.328.062.661.062 1 0 2.615-.89 4.68-2.369 6.057L11 14z" fill="#4285F4"/><path d="M3.3 9.712L3 12l-2.142-.393A7.966 7.966 0 010 8c0-1.298.309-2.523.858-3.607L3 4l.3 2.288A4.99 4.99 0 003 8c0 .601.106 1.178.3 1.712z" fill="#FBBC05"/><path d="M10.888 12.175l2.425 1.882C11.96 15.317 10.112 16 8 16a8 8 0 01-7.142-4.393L3.3 9.712A5.002 5.002 0 008 13c1.154 0 2.13-.283 2.888-.825z" fill="#34A853"/><path d="M.858 4.393A8 8 0 018 0c2.066 0 4.227.91 5.368 2.068L11.23 4.173C10.625 3.558 9.214 3 8 3 5.84 3 4 4.37 3.3 6.288L.859 4.393z" fill="#EA4335"/></g></svg>