<?xml version="1.0" encoding="utf-8"?><svg viewBox="0 0 38 38" xmlns="http://www.w3.org/2000/svg"><g fill="none" fill-rule="evenodd"><path d="M26 34l.688-4.984c1.891-1.354 3.216-3.381 3.862-6.016H20v-7h17.764c.155.977.236 1.98.236 3 0 6.226-2.123 11.139-5.65 14.408L26 34z" fill="#4285F4" fill-rule="nonzero"/><path d="M2.777 10.464L8 8l.479 6.888A11.977 11.977 0 007.756 19c0 1.445.255 2.83.723 4.112L8 30l-5.223-2.464A18.92 18.92 0 01.756 19c0-3.07.728-5.97 2.02-8.536z" fill="#FBBC05"/><path d="M26.688 29.016l5.662 4.392C29.137 36.386 24.758 38 19.756 38c-7.424 0-13.853-4.257-16.98-10.464l5.703-4.424C10.158 27.714 14.573 31 19.756 31c2.767 0 5.112-.68 6.932-1.984z" fill="#34A853"/><path d="M8.479 14.888l-5.702-4.424C5.903 4.257 12.332 0 19.756 0c4.906 0 10.04 2.16 12.749 4.912l-4.99 4.91C26.056 8.338 22.672 7 19.756 7c-5.182 0-9.597 3.286-11.276 7.888z" fill="#EA4335"/></g></svg>