<?xml version="1.0" encoding="utf-8"?><svg viewBox="0 0 32 32" xmlns="http://www.w3.org/2000/svg"><defs><linearGradient x1="0%" y1="26.756%" x2="100%" y2="53.689%" id="a"><stop stop-opacity=".15" offset="0%"/><stop stop-opacity="0" offset="100%"/></linearGradient></defs><g fill="none" fill-rule="evenodd"><path d="M24 1h5.632A2.368 2.368 0 0132 3.368v25.264A2.368 2.368 0 0129.632 31H24l-4-15 4-15z" fill="#0C0C0D"/><path d="M4.368 1H24v8H2V3.368A2.368 2.368 0 014.368 1z" fill="#2196F3"/><path d="M2 23h22v8H4.368A2.368 2.368 0 012 28.632V23z" fill="#F44336"/><path d="M2.834 7h20.333C24.455 7 25.5 8.099 25.5 9.455c0 .218-.028.435-.082.645L24 16l-11 5-11-5-1.417-5.9C.243 8.793.977 7.443 2.22 7.086c.2-.057.406-.086.614-.086z" fill="#2FB633"/><path d="M2.834 25c-.208 0-.414-.03-.614-.086C.977 24.557.244 23.207.583 21.9L2 16h22l1.418 5.9c.054.21.082.427.082.645 0 1.356-1.045 2.455-2.333 2.455H2.834z" fill="#FFC107"/><path fill="url(#a)" d="M2 16h22v15h-7z"/></g></svg>