<?xml version="1.0" encoding="utf-8"?><svg viewBox="0 0 16 16" xmlns="http://www.w3.org/2000/svg"><defs><linearGradient x1="0%" y1="29.752%" x2="100%" y2="53.213%" id="a"><stop stop-opacity=".15" offset="0%"/><stop stop-opacity="0" offset="100%"/></linearGradient></defs><g fill="none" fill-rule="evenodd"><path d="M11 1h2.895C14.505 1 15 1.495 15 2.105v11.79c0 .61-.495 1.105-1.105 1.105H11L9.474 8 11 1z" fill="#3D3D3D"/><path d="M2.105 1H12v4H1V2.105C1 1.495 1.495 1 2.105 1z" fill="#2196F3"/><path d="M1 11h11v4H2.105C1.495 15 1 14.505 1 13.895V11z" fill="#F44336"/><path d="M1.214 4h10.573C12.457 4 13 4.488 13 5.09a.988.988 0 01-.043.288L12 8l-5.785 2L1 8 .043 5.378c-.176-.581.205-1.181.851-1.34.104-.025.212-.038.32-.038z" fill="#2FB633"/><path d="M1.214 12c-.108 0-.216-.013-.32-.038-.646-.159-1.027-.759-.85-1.34L1 8h11l.957 2.622a.97.97 0 01.043.287c0 .603-.543 1.091-1.213 1.091H1.214z" fill="#FFC107"/><path fill="url(#a)" d="M1 8h11v7H8z"/></g></svg>