<?xml version="1.0" encoding="utf-8"?><svg viewBox="0 0 19 19" xmlns="http://www.w3.org/2000/svg"><defs><linearGradient x1="0%" y1="26.036%" x2="100%" y2="53.803%" id="a"><stop stop-opacity=".15" offset="0%"/><stop stop-opacity="0" offset="100%"/></linearGradient></defs><g fill="none" fill-rule="evenodd"><path d="M14 1h2.658C17.399 1 18 1.6 18 2.342v14.316c0 .741-.6 1.342-1.342 1.342H14l-2.71-8.5L14 1z" fill="#0C0C0D"/><path d="M2.342 1H14v5H1V2.342C1 1.601 1.6 1 2.342 1z" fill="#2196F3"/><path d="M1 13h13v5H2.342C1.601 18 1 17.4 1 16.658V13z" fill="#F44336"/><path d="M1.4 5h12.2c.773 0 1.4.537 1.4 1.2 0 .107-.017.213-.05.316L14 9l-6.105 2L1 9 .05 6.516c-.204-.64.236-1.3.982-1.474A1.62 1.62 0 011.4 5z" fill="#2FB633"/><path d="M1.4 13a1.81 1.81 0 01-.368-.038c-.746-.159-1.186-.759-.982-1.34L1 9h13l.95 2.622c.033.094.05.19.05.287 0 .603-.627 1.091-1.4 1.091H1.4z" fill="#FFC107"/><path fill="url(#a)" d="M1 9h13v9h-4z"/></g></svg>