<?xml version="1.0" encoding="utf-8"?><svg viewBox="0 0 38 38" xmlns="http://www.w3.org/2000/svg"><defs><linearGradient x1="0%" y1="27.778%" x2="100%" y2="53.527%" id="a"><stop stop-opacity=".15" offset="0%"/><stop stop-opacity="0" offset="100%"/></linearGradient></defs><g fill="none" fill-rule="evenodd"><path d="M29 1h6.158A2.842 2.842 0 0138 3.842v30.316A2.842 2.842 0 0135.158 37H29l-5.21-18L29 1z" fill="#0C0C0D"/><path d="M4.842 1.003L29 1.026V10L2 9.974V3.842A2.838 2.838 0 014.84 1l.002.003z" fill="#2196F3"/><path d="M2 27h27v10H4.842A2.842 2.842 0 012 34.158V27z" fill="#F44336"/><path d="M2.894 9h25.213C29.705 9 31 10.221 31 11.727c0 .243-.034.484-.102.718L29 19l-13 5-14-5-1.897-6.555c-.42-1.453.488-2.953 2.03-3.349.248-.064.504-.096.76-.096z" fill="#2FB633"/><path d="M2.894 29c-.257 0-.513-.032-.761-.096-1.542-.396-2.45-1.896-2.03-3.349L2 19h27l1.898 6.555c.068.234.102.475.102.718C31 27.779 29.705 29 28.107 29H2.894z" fill="#FFC107"/><path fill="url(#a)" d="M2 19h27v18h-9z"/></g></svg>