<?xml version="1.0" encoding="utf-8"?><svg viewBox="0 0 72 72" xmlns="http://www.w3.org/2000/svg"><g fill="none" fill-rule="evenodd"><path d="M8 0h40l2.5 15L0 62V8a8 8 0 018-8z" fill="#DDD"/><path d="M64 72H8a8 8 0 01-8-8v-3l48-48V0h16a8 8 0 018 8v56a8 8 0 01-8 8z" fill="#5C6062"/><path d="M8 1h40v15.5L1 60V8a7 7 0 017-7z" fill="#FFF"/><path d="M49 1h15a7 7 0 017 7v56a7 7 0 01-7 7H49V1z" fill="#2D2D2D"/><path d="M48 13v58H8a7 7 0 01-7-7v-4l47-47z" fill="#3C4043"/><path fill="#FFF" fill-rule="nonzero" d="M36 25v7.035L40.965 37 36 41.965V49h-7.035L24 53.965 19.035 49H12z"/><path fill="#3C4043" d="M12 49v-7.035L7.035 37 12 32.035V25h7.035L24 20.035 28.965 25H36z"/></g></svg>