<svg xmlns="http://www.w3.org/2000/svg" xmlns:xlink="http://www.w3.org/1999/xlink" width="512" height="512" viewBox="0 0 512 512">
  <defs>
    <style>
      .cls-1, .cls-3 {
        fill: #ff6700;
      }

      .cls-2 {
        fill: #fed34c;
        filter: url(#filter);
      }

      .cls-3 {
        fill-rule: evenodd;
      }
    </style>
    <filter id="filter" x="27" y="27" width="459" height="459" filterUnits="userSpaceOnUse">
      <feFlood result="flood" flood-color="#fff"/>
      <feComposite result="composite" operator="in" in2="SourceGraphic"/>
      <feBlend result="blend" in2="SourceGraphic"/>
    </filter>
  </defs>
  <circle id="Эллипс_1" data-name="Эллипс 1" class="cls-1" cx="256" cy="256" r="256"/>
  <circle id="Эллипс_1_копия" data-name="Эллипс 1 копия" class="cls-2" cx="256.5" cy="256.5" r="229.5"/>
  <path id="Фигура_1" data-name="Фигура 1" class="cls-3" d="M430.415,419H365.1a8.164,8.164,0,0,1-8.164-8.164v-192.5c0-28.007-8.569-56.514-59.6-56.514H153.644V410.836A8.165,8.165,0,0,1,145.479,419H80.164A8.164,8.164,0,0,1,72,410.836V100.59a8.164,8.164,0,0,1,8.164-8.164H297.336c96.874,0,141.194,14.57,141.243,125.731h0V410.836A8.165,8.165,0,0,1,430.415,419Z"/>
  <path id="Фигура_1-2" data-name="Фигура 1" class="cls-3" d="M221.408,207.157h67.764a8.164,8.164,0,0,1,8.164,8.164v42.515A8.164,8.164,0,0,1,289.172,266H221.408a8.165,8.165,0,0,1-8.165-8.164V215.321A8.165,8.165,0,0,1,221.408,207.157Z"/>
  <path id="Фигура_1-3" data-name="Фигура 1" class="cls-3" d="M221.408,300.157h67.764a8.164,8.164,0,0,1,8.164,8.164V409.836A8.164,8.164,0,0,1,289.172,418H221.408a8.165,8.165,0,0,1-8.165-8.164V308.321A8.165,8.165,0,0,1,221.408,300.157Z"/>
  <path id="Прямоугольник_скругл._углы_1" data-name="Прямоугольник, скругл. углы 1" class="cls-3" d="M328.189,278.694l47.376-47.376a6,6,0,0,1,8.485,0l47.377,47.376a6,6,0,0,1,0,8.486L384.05,334.556a6,6,0,0,1-8.485,0L328.189,287.18A6,6,0,0,1,328.189,278.694Z"/>
</svg>
