<?xml version="1.0" encoding="UTF-8" standalone="no"?>
<!DOCTYPE svg PUBLIC "-//W3C//DTD SVG 1.1//EN" "http://www.w3.org/Graphics/SVG/1.1/DTD/svg11.dtd">
<svg width="100%" height="100%" viewBox="0 0 220 200" version="1.1" xmlns="http://www.w3.org/2000/svg" xmlns:xlink="http://www.w3.org/1999/xlink" xml:space="preserve" xmlns:serif="http://www.serif.com/" style="fill-rule:evenodd;clip-rule:evenodd;stroke-miterlimit:1.5;">
    <g transform="matrix(1,0,0,1,-2550,-990)">
        <g id="NoAccessPrivate" transform="matrix(0.733333,0,0,0.666667,1230,1056.67)">
            <rect x="1800" y="-100" width="300" height="300" style="fill:none;"/>
            <g transform="matrix(1.36364,0,0,1.5,-2385.68,-3024.69)">
                <g id="NoAccessPrivateA">
                    <g>
                        <g transform="matrix(-0.937949,0,0,0.73902,6167.98,-1006.99)">
                            <path d="M3164.33,4137.9L3164.33,4167.67C3164.33,4167.67 3129.95,4169.46 3121.69,4127.08C3121.69,4127.08 3089.87,4126.28 3089.7,4100.01C3089.5,4069.17 3121.69,4064.83 3121.69,4064.83C3121.69,4064.83 3126.19,4010.68 3168.45,4005.29C3216.42,3999.18 3228.3,4059.42 3228.3,4059.42C3228.3,4059.42 3265.22,4052.75 3271.48,4086.48C3276.79,4115.04 3251.29,4135.81 3222.52,4135.85" style="fill:rgb(249,228,226);"/>
                        </g>
                        <g transform="matrix(1,0,0,1,1900,-808)">
                            <path d="M1247.11,2859.59L1274.21,2879.83C1270.24,2881.67 1265.38,2882.75 1260.13,2882.75C1246.73,2882.75 1231.57,2869.34 1231.57,2860.65L1247.11,2859.59Z" style="fill:rgb(249,228,226);"/>
                        </g>
                        <g transform="matrix(-0,-2.21581,0.84978,0,3182.96,2036.25)">
                            <path d="M-7.108,7.108L7.108,7.108" style="fill:none;stroke:white;stroke-width:1.19px;"/>
                        </g>
                        <g transform="matrix(0.326848,0.784409,-0.784409,0.326848,3156.21,2118.87)">
                            <path d="M-9.281,-6.187C-9.281,-6.187 -3.226,-8.774 4.125,-6.187" style="fill:none;stroke:rgb(249,228,226);stroke-width:2.35px;stroke-linecap:round;stroke-linejoin:round;"/>
                        </g>
                        <g transform="matrix(0.370602,0.764709,-0.764709,0.370602,3152.06,2119.72)">
                            <path d="M-5.348,-3.351C-5.348,-3.351 -1.816,-4.94 2.1,-3.351" style="fill:none;stroke:rgb(249,228,226);stroke-width:2.35px;stroke-linecap:round;stroke-linejoin:round;"/>
                        </g>
                        <g transform="matrix(0.24644,0.813261,-0.813261,0.24644,3158.32,2117.04)">
                            <path d="M-11.468,-8.508C-11.468,-8.508 -4.055,-11.189 6.312,-8.508" style="fill:none;stroke:rgb(249,228,226);stroke-width:2.35px;stroke-linecap:round;stroke-linejoin:round;"/>
                        </g>
                        <g transform="matrix(-0.979189,0,0,0.943242,3120,2007.06)">
                            <path d="M0,44.461L0,12.656L-34.212,-10.668L-68.424,12.656L-68.424,44.461" style="fill:white;fill-rule:nonzero;stroke:rgb(236,161,154);stroke-width:2.08px;stroke-linejoin:round;"/>
                        </g>
                        <g transform="matrix(1,0,0,1,1991,-783.5)">
                            <path d="M1136,2798L1136,2811" style="fill:none;stroke:rgb(249,228,226);stroke-width:2px;stroke-linecap:round;stroke-linejoin:round;"/>
                        </g>
                        <g transform="matrix(1,0,0,1,2045,-783.5)">
                            <path d="M1136,2798L1136,2811" style="fill:none;stroke:rgb(249,228,226);stroke-width:2px;stroke-linecap:round;stroke-linejoin:round;"/>
                        </g>
                        <g transform="matrix(1.26311,0,0,1.26311,1696.1,-1513.77)">
                            <path d="M1136,2792L1136,2813.5" style="fill:none;stroke:rgb(249,228,226);stroke-width:1.58px;stroke-linecap:round;stroke-linejoin:round;"/>
                        </g>
                        <g transform="matrix(1.26311,0,0,1.26311,1702.1,-1501.61)">
                            <path d="M1136,2792L1136,2813.5" style="fill:none;stroke:rgb(249,228,226);stroke-width:1.58px;stroke-linecap:round;stroke-linejoin:round;"/>
                        </g>
                        <g transform="matrix(1.26311,0,0,0.751484,1734.1,-62.1431)">
                            <path d="M1136,2792L1136,2813.5" style="fill:none;stroke:rgb(249,228,226);stroke-width:1.92px;stroke-linecap:round;stroke-linejoin:round;"/>
                        </g>
                        <g transform="matrix(1.26311,0,0,1.26311,1702.1,-1536.77)">
                            <path d="M1136,2805.98L1136,2813.5" style="fill:none;stroke:rgb(249,228,226);stroke-width:1.58px;stroke-linecap:round;stroke-linejoin:round;"/>
                        </g>
                        <g transform="matrix(1.26311,0,0,1.46255,1714.1,-2103.89)">
                            <path d="M1136,2805.98L1136,2813.5" style="fill:none;stroke:rgb(249,228,226);stroke-width:1.46px;stroke-linecap:round;stroke-linejoin:round;"/>
                        </g>
                        <g transform="matrix(1.26311,0,0,1.46255,1726.1,-2101.89)">
                            <path d="M1136,2805.98L1136,2813.5" style="fill:none;stroke:rgb(249,228,226);stroke-width:1.46px;stroke-linecap:round;stroke-linejoin:round;"/>
                        </g>
                        <g transform="matrix(1.26311,0,0,1.99439,1734.1,-3588.21)">
                            <path d="M1136,2805.98L1136,2813.5" style="fill:none;stroke:rgb(249,228,226);stroke-width:1.2px;stroke-linecap:round;stroke-linejoin:round;"/>
                        </g>
                        <g transform="matrix(2.82095,0,0,4.45413,-29.5989,-10480.7)">
                            <path d="M1136,2805.98L1136,2813.5" style="fill:none;stroke:rgb(249,228,226);stroke-width:0.54px;stroke-linecap:round;stroke-linejoin:round;"/>
                        </g>
                        <g transform="matrix(0.574142,0,0,0.664796,2492.77,144.597)">
                            <path d="M1136,2805.98L1136,2813.5" style="fill:none;stroke:rgb(249,228,226);stroke-width:3.22px;stroke-linecap:round;stroke-linejoin:round;"/>
                        </g>
                        <g transform="matrix(0.574142,0,0,0.664796,2492.77,180.597)">
                            <path d="M1136,2804.47L1136,2813.5" style="fill:none;stroke:rgb(249,228,226);stroke-width:3.22px;stroke-linecap:round;stroke-linejoin:round;"/>
                        </g>
                        <g transform="matrix(1,0,0,1,1991,-761)">
                            <path d="M1136,2798L1136,2804" style="fill:none;stroke:rgb(249,228,226);stroke-width:2px;stroke-linecap:round;stroke-linejoin:round;"/>
                        </g>
                        <g transform="matrix(1,0,0,1,2045,-761)">
                            <path d="M1136,2798L1136,2804" style="fill:none;stroke:rgb(249,228,226);stroke-width:2px;stroke-linecap:round;stroke-linejoin:round;"/>
                        </g>
                        <g transform="matrix(1.66667,0,0,1.42857,1082,-2018.14)">
                            <path d="M1242,2826.61C1242,2826.28 1241.77,2826 1241.47,2826C1240.34,2826 1237.66,2826 1236.53,2826C1236.24,2826 1236,2826.28 1236,2826.61C1236,2827.94 1236,2831.06 1236,2832.39C1236,2832.72 1236.24,2833 1236.53,2833C1237.66,2833 1240.34,2833 1241.47,2833C1241.77,2833 1242,2832.72 1242,2832.39C1242,2831.06 1242,2827.94 1242,2826.61Z" style="fill:rgb(236,161,154);"/>
                        </g>
                        <g transform="matrix(1.66667,0,0,1.42857,1082,-2006.14)">
                            <path d="M1242,2826.61C1242,2826.28 1241.77,2826 1241.47,2826C1240.34,2826 1237.66,2826 1236.53,2826C1236.24,2826 1236,2826.28 1236,2826.61C1236,2827.94 1236,2831.06 1236,2832.39C1236,2832.72 1236.24,2833 1236.53,2833C1237.66,2833 1240.34,2833 1241.47,2833C1241.77,2833 1242,2832.72 1242,2832.39C1242,2831.06 1242,2827.94 1242,2826.61Z" style="fill:rgb(236,161,154);"/>
                        </g>
                        <g transform="matrix(1.66667,0,0,1.42857,1094,-2018.14)">
                            <path d="M1242,2826.61C1242,2826.28 1241.77,2826 1241.47,2826C1240.34,2826 1237.66,2826 1236.53,2826C1236.24,2826 1236,2826.28 1236,2826.61C1236,2827.94 1236,2831.06 1236,2832.39C1236,2832.72 1236.24,2833 1236.53,2833C1237.66,2833 1240.34,2833 1241.47,2833C1241.77,2833 1242,2832.72 1242,2832.39C1242,2831.06 1242,2827.94 1242,2826.61Z" style="fill:rgb(236,161,154);"/>
                        </g>
                        <g transform="matrix(1.66667,0,0,1.42857,1094,-2006.14)">
                            <path d="M1242,2826.61C1242,2826.28 1241.77,2826 1241.47,2826C1240.34,2826 1237.66,2826 1236.53,2826C1236.24,2826 1236,2826.28 1236,2826.61C1236,2827.94 1236,2831.06 1236,2832.39C1236,2832.72 1236.24,2833 1236.53,2833C1237.66,2833 1240.34,2833 1241.47,2833C1241.77,2833 1242,2832.72 1242,2832.39C1242,2831.06 1242,2827.94 1242,2826.61Z" style="fill:rgb(236,161,154);"/>
                        </g>
                        <g transform="matrix(-1.24624,0,0,1.20049,3110.86,2009.81)">
                            <path d="M0,12.656L-34.212,-10.668L-68.424,12.656" style="fill:none;stroke:rgb(236,161,154);stroke-width:1.63px;stroke-linejoin:round;"/>
                        </g>
                        <g transform="matrix(-0,-0.84978,0.84978,0,3174.13,2026.13)">
                            <path d="M-29.263,29.263L29.263,29.263" style="fill:none;stroke:white;stroke-width:2.35px;"/>
                        </g>
                        <g transform="matrix(-0,-0.84978,0.84978,0,3176.89,2005.73)">
                            <path d="M-5.586,5.586L5.586,5.586" style="fill:none;stroke:white;stroke-width:2.35px;"/>
                        </g>
                        <g transform="matrix(-0,-0.84978,0.84978,0,3185.94,2041.34)">
                            <path d="M-10.955,10.955L10.955,10.955" style="fill:none;stroke:white;stroke-width:2.35px;"/>
                        </g>
                        <g transform="matrix(-0,-1.47942,0.84978,0,3184.75,2003.84)">
                            <path d="M-12.059,12.059L12.059,12.059" style="fill:none;stroke:white;stroke-width:1.66px;"/>
                        </g>
                        <g transform="matrix(0.584457,-0.616877,0.616877,0.584457,3208.12,2012.89)">
                            <path d="M-29.287,12.597L5.418,12.597" style="fill:none;stroke:white;stroke-width:2.35px;"/>
                        </g>
                        <g transform="matrix(-0.84978,0,0,0.84978,3199.69,2119.9)">
                            <path d="M0,-78.36L0,-9.639C0,-4.315 -4.316,0 -9.639,0L-44.127,0" style="fill:none;stroke:rgb(249,228,226);stroke-width:2.35px;stroke-linecap:round;stroke-linejoin:round;"/>
                        </g>
                        <g transform="matrix(-0.84978,0,0,0.84978,3199.69,2119.9)">
                            <path d="M0,-78.36L0,-9.639C0,-4.315 -4.316,0 -9.639,0L-44.127,0" style="fill:none;stroke:rgb(249,228,226);stroke-width:2.35px;stroke-linecap:round;stroke-linejoin:round;"/>
                        </g>
                        <g transform="matrix(-0.84978,0,0,0.84978,3146.43,2119.9)">
                            <path d="M0,-80.304L-37.293,-51.137L-37.293,-9.64C-37.293,-4.316 -32.977,0 -27.653,0L43.608,0" style="fill:none;stroke:rgb(249,228,226);stroke-width:2.35px;stroke-linecap:round;stroke-linejoin:round;"/>
                        </g>
                        <g transform="matrix(-0.84978,0,0,0.84978,3146.43,2119.9)">
                            <path d="M0,-80.304L-37.293,-51.137L-37.293,-9.64C-37.293,-4.316 -32.977,0 -27.653,0L43.608,0" style="fill:none;stroke:rgb(249,228,226);stroke-width:2.35px;stroke-linecap:round;stroke-linejoin:round;"/>
                        </g>
                        <g transform="matrix(-0.838133,0.14021,-0.14021,-0.838133,3196,2119.72)">
                            <path d="M-0.562,-6.765L81.446,-6.765" style="fill:none;stroke:rgb(218,76,63);stroke-width:2.35px;stroke-linecap:round;stroke-linejoin:round;"/>
                        </g>
                        <g transform="matrix(0.843825,-0.100432,0.100432,0.843825,3203.45,2132.78)">
                            <path d="M-86.508,5.13L0.304,5.13" style="fill:none;stroke:rgb(218,76,63);stroke-width:2.35px;stroke-linecap:round;stroke-linejoin:round;"/>
                        </g>
                        <g transform="matrix(0.275834,0.803768,-0.803768,0.275834,3133.76,2141.08)">
                            <path d="M-5.336,-3.81L2.721,-3.81" style="fill:none;stroke:rgb(218,76,63);stroke-width:2.35px;stroke-linecap:round;stroke-linejoin:round;"/>
                        </g>
                        <g transform="matrix(-0.84978,0,0,0.84978,3145.7,2136.23)">
                            <path d="M0,8.879L-2.463,3.422L0.694,0" style="fill:none;stroke:rgb(218,76,63);stroke-width:2.35px;stroke-linecap:round;stroke-linejoin:round;"/>
                        </g>
                        <g transform="matrix(0.0343099,0.849087,-0.849087,0.0343099,3152.34,2135.73)">
                            <path d="M-4.033,-3.873L3.72,-3.873" style="fill:none;stroke:rgb(218,76,63);stroke-width:2.35px;stroke-linecap:round;stroke-linejoin:round;"/>
                        </g>
                        <g transform="matrix(0.379566,0.7603,-0.7603,0.379566,3188.52,2137.26)">
                            <path d="M-9.477,-5.861L3.625,-5.861" style="fill:none;stroke:rgb(218,76,63);stroke-width:2.35px;stroke-linecap:round;stroke-linejoin:round;"/>
                        </g>
                        <g transform="matrix(0.379618,0.760274,-0.760274,0.379618,3178.7,2138.41)">
                            <path d="M-9.478,-5.861L3.625,-5.861" style="fill:none;stroke:rgb(218,76,63);stroke-width:2.35px;stroke-linecap:round;stroke-linejoin:round;"/>
                        </g>
                        <g transform="matrix(0.379618,0.760274,-0.760274,0.379618,3169.16,2139.53)">
                            <path d="M-9.478,-5.861L3.625,-5.861" style="fill:none;stroke:rgb(218,76,63);stroke-width:2.35px;stroke-linecap:round;stroke-linejoin:round;"/>
                        </g>
                        <g transform="matrix(0.35071,0.774035,-0.774035,0.35071,3159.86,2140.34)">
                            <path d="M-8.688,-5.602L3.612,-5.602" style="fill:none;stroke:rgb(218,76,63);stroke-width:2.35px;stroke-linecap:round;stroke-linejoin:round;"/>
                        </g>
                        <g transform="matrix(1,0,0,1,1900,-808)">
                            <path d="M1278.12,2860L1278.12,2874L1254.34,2860.32L1278.12,2860Z" style="fill:rgb(249,228,226);"/>
                        </g>
                        <g transform="matrix(0,0.84978,-0.84978,0,3176.84,2070.71)">
                            <path d="M-21.795,-21.795L21.795,-21.795" style="fill:none;stroke:rgb(249,228,226);stroke-width:2.35px;stroke-linecap:round;stroke-linejoin:round;"/>
                        </g>
                        <g transform="matrix(0,0.84978,-0.84978,0,3176.84,2070.71)">
                            <path d="M-21.795,-21.795L21.795,-21.795" style="fill:none;stroke:rgb(249,228,226);stroke-width:2.35px;stroke-linecap:round;stroke-linejoin:round;"/>
                        </g>
                        <g transform="matrix(0,0.84978,-0.84978,0,3192.47,2097.36)">
                            <path d="M-3.406,-3.406L3.406,-3.406" style="fill:none;stroke:rgb(249,228,226);stroke-width:2.35px;stroke-linecap:round;stroke-linejoin:round;"/>
                        </g>
                        <g transform="matrix(0,0.84978,-0.84978,0,3192.47,2097.36)">
                            <path d="M-3.406,-3.406L3.406,-3.406" style="fill:none;stroke:rgb(249,228,226);stroke-width:2.35px;stroke-linecap:round;stroke-linejoin:round;"/>
                        </g>
                        <g transform="matrix(0,0.84978,-0.84978,0,3177.12,2065.53)">
                            <path d="M-15.064,-15.064L15.064,-15.064" style="fill:none;stroke:rgb(249,228,226);stroke-width:2.35px;stroke-linecap:round;stroke-linejoin:round;"/>
                        </g>
                        <g transform="matrix(0,0.84978,-0.84978,0,3177.12,2065.53)">
                            <path d="M-15.064,-15.064L15.064,-15.064" style="fill:none;stroke:rgb(249,228,226);stroke-width:2.35px;stroke-linecap:round;stroke-linejoin:round;"/>
                        </g>
                        <g transform="matrix(0,0.84978,-0.84978,0,3174.67,2063.76)">
                            <path d="M-8.493,-8.493L8.493,-8.493" style="fill:none;stroke:rgb(249,228,226);stroke-width:2.35px;stroke-linecap:round;stroke-linejoin:round;"/>
                        </g>
                        <g transform="matrix(0,0.84978,-0.84978,0,3174.67,2063.76)">
                            <path d="M-8.493,-8.493L8.493,-8.493" style="fill:none;stroke:rgb(249,228,226);stroke-width:2.35px;stroke-linecap:round;stroke-linejoin:round;"/>
                        </g>
                        <g transform="matrix(0,0.84978,-0.84978,0,3172.35,2096.58)">
                            <path d="M-11.859,-11.859L11.859,-11.859" style="fill:none;stroke:rgb(249,228,226);stroke-width:2.35px;stroke-linecap:round;stroke-linejoin:round;"/>
                        </g>
                        <g transform="matrix(0,0.84978,-0.84978,0,3172.35,2096.58)">
                            <path d="M-11.859,-11.859L11.859,-11.859" style="fill:none;stroke:rgb(249,228,226);stroke-width:2.35px;stroke-linecap:round;stroke-linejoin:round;"/>
                        </g>
                        <g transform="matrix(0,0.186409,-0.536703,0,3100.69,2055.21)">
                            <path d="M-11.859,-11.859L11.859,-11.859" style="fill:none;stroke:rgb(249,228,226);stroke-width:4.98px;stroke-linecap:round;stroke-linejoin:round;"/>
                        </g>
                        <g transform="matrix(0,0.186409,-0.536703,0,3113.32,2055.21)">
                            <path d="M-11.859,-11.859L11.859,-11.859" style="fill:none;stroke:rgb(249,228,226);stroke-width:4.98px;stroke-linecap:round;stroke-linejoin:round;"/>
                        </g>
                        <g transform="matrix(0.961428,0,0,0.84978,3200,2052)">
                            <path d="M-110.13,0L0,0" style="fill:none;stroke:rgb(236,161,154);stroke-width:2.2px;stroke-linejoin:round;stroke-miterlimit:10;"/>
                        </g>
                        <g transform="matrix(1.01541,0,0,1.00955,3200,2050)">
                            <path d="M-108.331,0L0,0" style="fill:none;stroke:white;stroke-width:1.98px;stroke-linejoin:round;stroke-miterlimit:10;"/>
                        </g>
                        <g transform="matrix(0.639482,0,0,0.815379,2339.01,-290.059)">
                            <rect x="1193.13" y="2883.46" width="35.555" height="23.237" style="fill:none;stroke:rgb(249,228,226);stroke-width:2.73px;stroke-linecap:round;stroke-linejoin:round;"/>
                        </g>
                        <g transform="matrix(0.208544,0,0,0.208544,2784.42,1820.12)">
                            <circle cx="1578.5" cy="1200.5" r="27.5" style="fill:none;stroke:rgb(218,76,63);stroke-width:9.59px;stroke-linecap:square;stroke-linejoin:round;"/>
                        </g>
                        <g transform="matrix(0.113714,0.113714,-0.0734868,0.0734868,3031.79,1805.55)">
                            <path d="M1526,1193L1526,1298" style="fill:none;stroke:rgb(218,76,63);stroke-width:14.77px;stroke-linecap:square;stroke-linejoin:round;"/>
                        </g>
                        <g transform="matrix(0.749954,0.0404063,-0.0404837,0.751391,3093.46,-740.821)">
                            <path d="M388.473,3798.52C388.473,3798.52 394.641,3796.07 394.025,3787.77L395.209,3797.11" style="fill:none;stroke:rgb(236,161,154);stroke-width:2.66px;stroke-linecap:round;stroke-linejoin:round;stroke-miterlimit:10;"/>
                        </g>
                        <g transform="matrix(-0.723276,-0.0389689,-0.0389494,0.722914,3733.03,808.607)">
                            <path d="M580.718,1815.08C580.718,1815.08 580.317,1813.12 578.677,1812.29C574.323,1810.08 561.134,1811.54 561.152,1808.28C560.936,1804.74 573.613,1799.86 580.053,1797.62C582.373,1796.81 584.899,1796.82 587.212,1797.65C591.094,1799.04 597.556,1801.35 603.248,1803.39C604.822,1803.95 605.847,1805.47 605.779,1807.14C605.71,1808.81 604.563,1810.25 602.948,1810.68C596.794,1812.32 590.543,1813.99 590.543,1813.99" style="fill:none;stroke:rgb(236,161,154);stroke-width:2.76px;stroke-linecap:round;stroke-linejoin:round;"/>
                        </g>
                        <g transform="matrix(0.749954,0.0404063,-0.0404837,0.751391,3111.72,-739.982)">
                            <path d="M390.209,3798.79C390.209,3798.79 392.364,3791.68 388.954,3785.78L393.804,3793.77" style="fill:none;stroke:rgb(236,161,154);stroke-width:2.66px;stroke-linecap:round;stroke-linejoin:round;stroke-miterlimit:10;"/>
                        </g>
                        <g transform="matrix(-1.03448,0.255607,0.254908,1.0364,3384.61,79.3778)">
                            <circle cx="578.595" cy="1785" r="4.03" style="fill:rgb(236,161,154);"/>
                        </g>
                        <g transform="matrix(0.897288,2.24463,1.37593,-0.552363,-748.417,2289.79)">
                            <path d="M533.401,2554.29C533.401,2554.29 531.212,2560.68 531.212,2563.43C531.212,2565.4 532.193,2567 533.401,2567C534.61,2567 535.591,2565.4 535.591,2563.43C535.591,2560.68 533.401,2554.29 533.401,2554.29Z" style="fill:rgb(218,76,63);"/>
                        </g>
                        <g transform="matrix(-0.460115,0.113688,0.146807,0.596883,3249.47,943.839)">
                            <path d="M589.047,1785.28C589.342,1785.52 589.621,1785.77 589.873,1786.04" style="fill:none;stroke:white;stroke-width:3.64px;stroke-linecap:round;stroke-linejoin:round;"/>
                        </g>
                        <g transform="matrix(-1.31996,0.326144,0.325253,1.32241,3438.07,-477.913)">
                            <path d="M592.003,1785.55C592.304,1785.31 592.613,1785.08 592.949,1784.89" style="fill:none;stroke:rgb(236,161,154);stroke-width:1.47px;stroke-linecap:round;stroke-linejoin:round;"/>
                        </g>
                        <g transform="matrix(0.749954,0.0404063,-0.0404837,0.751391,3093.19,-742.016)">
                            <path d="M398.847,3740.26C398.847,3740.26 389.407,3752.37 386.714,3778.13C386.449,3780.66 386.795,3783.3 387.267,3785.47C387.809,3788.17 390.19,3790.12 392.955,3790.12C392.955,3790.21 392.956,3790.21 392.956,3790.21C394.651,3790.21 396.272,3789.52 397.439,3788.29C398.606,3787.06 399.217,3785.41 399.129,3783.72C398.918,3779.35 398.6,3773.64 398.204,3769.55C400.073,3776.1 402.503,3782.18 406.045,3786.67C407.129,3788.06 408.722,3788.96 410.473,3789.17C412.223,3789.39 413.987,3788.9 415.376,3787.81C415.384,3787.82 415.384,3787.82 415.384,3787.82C418.258,3785.58 418.775,3781.44 416.542,3778.56C405.408,3762.95 398.847,3740.26 398.847,3740.26Z" style="fill:rgb(218,76,63);"/>
                        </g>
                    </g>
                </g>
            </g>
        </g>
    </g>
</svg>
