<?xml version="1.0" encoding="UTF-8"?><svg xmlns="http://www.w3.org/2000/svg" viewBox="0 0 20 20"><path fill="#F6AD01" d="M1 10c0-1.435.34-2.795.94-4 .6-1.205-.86-.52-.86-.52A9.945 9.945 0 0 0 0 10c0 1.655.4 3.215 1.115 4.59s.895-.455.895-.455A8.917 8.917 0 0 1 1 10z"/><path fill="#3174F1" d="M16.745 17.385A9.972 9.972 0 0 0 20 10a9.97 9.97 0 0 0-3.27-7.395c-2.01-1.83-.685.73-.685.73A8.983 8.983 0 0 1 19 10a8.98 8.98 0 0 1-2.925 6.635c-1.795 1.645.67.75.67.75z"/><path fill="#249A41" d="M16.075 16.635A8.951 8.951 0 0 1 10 19c-3.475 0-6.49-1.975-7.995-4.865l-.895.455A10.002 10.002 0 0 0 10 20c2.6 0 4.965-.99 6.74-2.615l-.665-.75z"/><path fill="#E92D18" d="M10 1c2.325 0 4.445.885 6.045 2.335l.685-.73A9.944 9.944 0 0 0 10 0a10 10 0 0 0-8.92 5.48l.86.52C3.415 3.04 6.475 1 10 1"/></svg>