<?xml version="1.0" encoding="utf-8"?><svg viewBox="0 0 19 19" xmlns="http://www.w3.org/2000/svg"><g fill="none" fill-rule="evenodd"><path d="M13 17l.344-2.492c.946-.677 1.608-1.69 1.931-3.008H10V8h8.882c.078.489.118.99.118 1.5 0 3.113-1.061 5.57-2.825 7.204L13 17z" fill="#4285F4" fill-rule="nonzero"/><path d="M1.388 5.232L4 4l.24 3.444A5.989 5.989 0 003.877 9.5c0 .722.127 1.415.361 2.056L4 15l-2.612-1.232A9.46 9.46 0 01.378 9.5a9.46 9.46 0 011.01-4.268z" fill="#FBBC05"/><path d="M13.344 14.508l2.83 2.196C14.569 18.193 12.38 19 9.879 19a9.5 9.5 0 01-8.49-5.232l2.851-2.212A6.002 6.002 0 009.878 15.5c1.384 0 2.556-.34 3.466-.992z" fill="#34A853"/><path d="M4.24 7.444L1.387 5.232A9.5 9.5 0 019.878 0c2.453 0 5.02 1.08 6.374 2.456l-2.494 2.455c-.73-.742-2.423-1.411-3.88-1.411a6.002 6.002 0 00-5.639 3.944z" fill="#EA4335"/></g></svg>